<?xml version="1.0" standalone="no"?><!DOCTYPE svg PUBLIC "-//W3C//DTD SVG 1.1//EN" "http://www.w3.org/Graphics/SVG/1.1/DTD/svg11.dtd"><svg t="1768498149529" class="icon" viewBox="0 0 1024 1024" version="1.1" xmlns="http://www.w3.org/2000/svg" p-id="6217" xmlns:xlink="http://www.w3.org/1999/xlink" width="32" height="32"><path d="M511.82 144.68c202.11 0 366.55 164.43 366.55 366.55 0 202.11-164.43 366.55-366.55 366.55S145.27 713.34 145.27 511.22c0-202.11 164.44-366.54 366.55-366.54m0-81.46c-247.42 0-448 200.58-448 448s200.58 448 448 448 448-200.58 448-448-200.58-448-448-448z" fill="#231815" p-id="6218"></path><path d="M613.06 655.08c-10.47 0-20.93-4.02-28.88-12.01l-102.5-103.14a40.737 40.737 0 0 1-11.84-28.72V286.98c0-22.49 18.24-40.73 40.73-40.73s40.73 18.24 40.73 40.73v207.43l90.65 91.22c15.86 15.97 15.78 41.74-0.18 57.61-7.94 7.9-18.33 11.84-28.71 11.84z" fill="#231815" p-id="6219"></path></svg>